<?xml version="1.0" encoding="UTF-8" standalone="no"?>
<!DOCTYPE svg PUBLIC "-//W3C//DTD SVG 1.1//EN" "http://www.w3.org/Graphics/SVG/1.1/DTD/svg11.dtd">
<svg width="515px" height="136px" version="1.1" xmlns="http://www.w3.org/2000/svg" xmlns:xlink="http://www.w3.org/1999/xlink" xml:space="preserve" xmlns:serif="http://www.serif.com/" style="fill-rule:evenodd;clip-rule:evenodd;stroke-linejoin:round;stroke-miterlimit:2;" fill="white">
    <g id="path2" transform="matrix(0.864585,0,0,0.864585,0,0)">
        <path d="M 36.8 84.1 L 5.6 84.1 A 5.381 5.381 0 0 1 1.702 82.502 A 6.653 6.653 0 0 1 1.65 82.45 A 5.51 5.51 0 0 1 0.262 80.23 A 5.608 5.608 0 0 1 0 78.5 L 0 77.6 A 5.381 5.381 0 0 1 1.599 73.702 A 6.653 6.653 0 0 1 1.65 73.65 A 5.51 5.51 0 0 1 3.871 72.262 A 5.608 5.608 0 0 1 5.6 72 L 36.8 72 Q 37.6 72 37.6 71.1 L 37.6 67.6 Q 37.6 66.966 37.097 66.835 A 1.179 1.179 0 0 0 36.8 66.8 L 24.9 66.8 L 14.6 66.8 Q 12.3 66.8 10.65 65.1 Q 9 63.4 9 61.1 L 9 30.5 Q 9 28.2 10.65 26.5 A 5.585 5.585 0 0 1 12.556 25.187 A 5.371 5.371 0 0 1 14.6 24.8 L 19.6 24.8 A 1.474 1.474 0 0 0 19.94 24.765 Q 20.5 24.632 20.5 24 L 20.5 20.6 A 1.296 1.296 0 0 0 20.456 20.244 Q 20.341 19.845 19.934 19.739 A 1.326 1.326 0 0 0 19.6 19.7 L 6 19.7 A 5.461 5.461 0 0 1 2.054 18.053 A 7.054 7.054 0 0 1 2 18 Q 0.3 16.3 0.3 14 L 0.3 13.2 A 5.461 5.461 0 0 1 1.948 9.254 A 7.054 7.054 0 0 1 2 9.2 Q 3.7 7.5 6 7.5 L 19.6 7.5 A 1.474 1.474 0 0 0 19.94 7.465 Q 20.5 7.332 20.5 6.7 L 20.5 5.6 A 5.381 5.381 0 0 1 22.099 1.702 A 6.653 6.653 0 0 1 22.15 1.65 A 5.51 5.51 0 0 1 24.371 0.262 A 5.608 5.608 0 0 1 26.1 0 L 30.3 0 Q 32.6 0 34.3 1.65 A 5.585 5.585 0 0 1 35.614 3.556 A 5.371 5.371 0 0 1 36 5.6 L 36 6.7 Q 36 7.335 36.504 7.466 A 1.179 1.179 0 0 0 36.8 7.5 L 54.8 7.5 Q 55.435 7.5 55.566 6.997 A 1.179 1.179 0 0 0 55.6 6.7 L 55.6 5.6 Q 55.6 3.3 57.3 1.65 Q 59 0 61.3 0 L 65.5 0 A 5.381 5.381 0 0 1 69.399 1.599 A 6.653 6.653 0 0 1 69.45 1.65 A 5.51 5.51 0 0 1 70.839 3.871 A 5.608 5.608 0 0 1 71.1 5.6 L 71.1 6.7 Q 71.1 7.5 72 7.5 L 85.6 7.5 A 5.461 5.461 0 0 1 89.547 9.148 A 7.054 7.054 0 0 1 89.6 9.2 Q 91.3 10.9 91.3 13.2 L 91.3 14 A 5.461 5.461 0 0 1 89.653 17.947 A 7.054 7.054 0 0 1 89.6 18 Q 87.9 19.7 85.6 19.7 L 72 19.7 A 1.296 1.296 0 0 0 71.644 19.745 Q 71.245 19.859 71.139 20.267 A 1.326 1.326 0 0 0 71.1 20.6 L 71.1 24 Q 71.1 24.8 72 24.8 L 77 24.8 Q 79.3 24.8 80.95 26.5 Q 82.6 28.2 82.6 30.5 L 82.6 61.1 Q 82.6 63.4 80.95 65.1 A 5.585 5.585 0 0 1 79.045 66.414 A 5.371 5.371 0 0 1 77 66.8 L 54.8 66.8 Q 54.166 66.8 54.035 67.304 A 1.179 1.179 0 0 0 54 67.6 L 54 71.1 A 1.474 1.474 0 0 0 54.036 71.44 Q 54.169 72 54.8 72 L 86 72 A 5.381 5.381 0 0 1 89.899 73.599 A 6.653 6.653 0 0 1 89.95 73.65 A 5.51 5.51 0 0 1 91.339 75.871 A 5.608 5.608 0 0 1 91.6 77.6 L 91.6 78.5 A 5.381 5.381 0 0 1 90.002 82.399 A 6.653 6.653 0 0 1 89.95 82.45 A 5.51 5.51 0 0 1 87.73 83.839 A 5.608 5.608 0 0 1 86 84.1 L 54.8 84.1 Q 54 84.1 54 85 L 54 88 Q 54 90.3 52.3 91.95 Q 50.6 93.6 48.3 93.6 L 43.3 93.6 Q 41 93.6 39.3 91.95 A 5.585 5.585 0 0 1 37.987 90.045 A 5.371 5.371 0 0 1 37.6 88 L 37.6 85 A 1.474 1.474 0 0 0 37.565 84.661 Q 37.432 84.1 36.8 84.1 Z M 25.7 56 L 65.9 56 Q 66.535 56 66.666 55.497 A 1.179 1.179 0 0 0 66.7 55.2 L 66.7 51.6 A 1.474 1.474 0 0 0 66.665 51.261 Q 66.532 50.7 65.9 50.7 L 25.7 50.7 Q 24.9 50.7 24.9 51.6 L 24.9 55.2 Q 24.9 55.835 25.404 55.966 A 1.179 1.179 0 0 0 25.7 56 Z M 66.7 39.9 L 66.7 36.4 A 1.474 1.474 0 0 0 66.665 36.061 Q 66.532 35.5 65.9 35.5 L 25.7 35.5 Q 24.9 35.5 24.9 36.4 L 24.9 39.9 Q 24.9 40.535 25.404 40.666 A 1.179 1.179 0 0 0 25.7 40.7 L 65.9 40.7 Q 66.535 40.7 66.666 40.197 A 1.179 1.179 0 0 0 66.7 39.9 Z M 54.8 19.7 L 36.8 19.7 Q 36 19.7 36 20.6 L 36 24 Q 36 24.635 36.504 24.766 A 1.179 1.179 0 0 0 36.8 24.8 L 54.8 24.8 Q 55.435 24.8 55.566 24.297 A 1.179 1.179 0 0 0 55.6 24 L 55.6 20.6 A 1.474 1.474 0 0 0 55.565 20.261 Q 55.432 19.7 54.8 19.7 Z" id="0" vector-effect="non-scaling-stroke"/><path d="M 111.3 82.8 L 109.5 77.6 A 5.727 5.727 0 0 1 109.25 76.386 Q 109.108 74.841 109.9 73.4 Q 111 71.4 113.2 70.8 A 98.73 98.73 0 0 0 127.69 65.614 Q 135.131 62.226 140.74 57.843 A 47.487 47.487 0 0 0 147.75 51.15 Q 156.282 41.089 160.1 23.973 A 116.919 116.919 0 0 0 162 12.8 Q 162.3 10.5 164.15 9 A 5.921 5.921 0 0 1 166.098 7.93 Q 167.142 7.6 168.3 7.7 L 174.8 8.3 A 5.471 5.471 0 0 1 178.602 10.293 A 7.078 7.078 0 0 1 178.65 10.35 A 5.679 5.679 0 0 1 179.624 11.979 Q 179.949 12.833 179.949 13.766 A 5.672 5.672 0 0 1 179.9 14.5 A 129.457 129.457 0 0 1 176.218 33.715 Q 171.397 51.111 161.9 62.2 A 66.113 66.113 0 0 1 144.622 76.29 Q 133.602 82.679 118.7 86.7 A 6.37 6.37 0 0 1 117.195 86.911 Q 115.689 86.936 114.25 86.2 Q 112.1 85.1 111.3 82.8 Z" id="1" vector-effect="non-scaling-stroke"/><path d="M 281.8 54.9 L 209.8 54.9 A 5.461 5.461 0 0 1 205.854 53.253 A 7.054 7.054 0 0 1 205.8 53.2 Q 204.1 51.5 204.1 49.2 L 204.1 44.4 A 5.461 5.461 0 0 1 205.748 40.454 A 7.054 7.054 0 0 1 205.8 40.4 Q 207.5 38.7 209.8 38.7 L 281.8 38.7 A 5.461 5.461 0 0 1 285.747 40.348 A 7.054 7.054 0 0 1 285.8 40.4 Q 287.5 42.1 287.5 44.4 L 287.5 49.2 A 5.461 5.461 0 0 1 285.853 53.147 A 7.054 7.054 0 0 1 285.8 53.2 Q 284.1 54.9 281.8 54.9 Z" id="2" vector-effect="non-scaling-stroke"/><path d="M 328.5 88.5 L 322.8 88.5 A 5.461 5.461 0 0 1 318.854 86.853 A 7.054 7.054 0 0 1 318.8 86.8 Q 317.1 85.1 317.1 82.8 L 317.1 10.8 A 5.461 5.461 0 0 1 318.748 6.854 A 7.054 7.054 0 0 1 318.8 6.8 Q 320.5 5.1 322.8 5.1 L 328.5 5.1 Q 330.8 5.1 332.45 6.8 Q 334.1 8.5 334.1 10.8 L 334.1 31.8 A 1.336 1.336 0 0 0 334.168 32.24 Q 334.347 32.755 335 32.9 Q 358.5 38.7 382.5 47.1 Q 384.7 47.8 385.8 49.95 A 5.746 5.746 0 0 1 386.369 51.646 Q 386.589 52.995 386.1 54.4 L 384.5 58.9 Q 383.7 61.1 381.7 62.1 Q 379.7 63.1 377.5 62.4 Q 357 55.1 334.9 49.4 A 1.338 1.338 0 0 0 334.779 49.376 Q 334.185 49.285 334.111 49.909 A 1.637 1.637 0 0 0 334.1 50.1 L 334.1 82.8 Q 334.1 85.1 332.45 86.8 A 5.585 5.585 0 0 1 330.545 88.114 A 5.371 5.371 0 0 1 328.5 88.5 Z" id="3" vector-effect="non-scaling-stroke"/>
    </g>
</svg>
